# File created by Blade
# Date/Time:  Tue Jan 27 19:05:02 2015
# Frame Rate: 120.000 fps
#------------------------------------------------------
:FULLY-SPECIFIED
:DEGREES
3690
root -5.478994 31.719086 -4.776110 9.290991 -2.757840 1.264930
Spine -4.456037 -4.617816 -3.136491
Head 9.745217 6.099386 4.674331
LeftShoulder -16.871095 16.959385 12.725563
LeftArm 7.871815 -30.619433 -77.277870
LeftForeArm -0.170427 -0.000000 105.507711
LeftHand -13.519117 -0.000000 28.793009
LeftHandThumb1 -26.253704 0.000000 33.147579
RightShoulder -8.669677 3.249347 -10.400872
RightArm 17.881155 -43.623467 76.645770
RightForeArm -29.585686 -0.000000 22.707199
RightHand -13.521723 -0.000000 12.247783
RightHandThumb1 -24.326973 -0.000000 -32.862282
LeftUpLeg -10.164813 -6.899796 -4.629161
LeftLeg 14.322352 -0.000000 -0.000000
LeftFoot -23.984278 24.862189 -14.154681
LeftToeBase 9.612977 -0.000000 -0.000000
RightUpLeg -16.510993 12.005566 -4.066485
RightLeg 22.023089 -0.000000 -0.000000
RightFoot -24.255279 -11.959661 14.074525
RightToeBase 0.345822 -0.000000 -0.000000
3691
root -5.527319 31.719911 -4.734173 9.222818 -2.560768 1.458883
Spine -4.557662 -4.734030 -3.238040
Head 9.725769 6.124846 4.498207
LeftShoulder -16.935421 16.936145 12.517215
LeftArm 7.881075 -30.538856 -77.212561
LeftForeArm -0.029169 0.000000 105.540453
LeftHand -13.632406 -0.000000 28.816846
LeftHandThumb1 -26.253704 0.000000 33.147579
RightShoulder -8.699471 3.016339 -10.396626
RightArm 17.523526 -43.577181 76.717413
RightForeArm -29.484900 -0.000000 22.339954
RightHand -13.444557 -0.000000 12.458264
RightHandThumb1 -24.326973 -0.000000 -32.862282
LeftUpLeg -9.798125 -6.971919 -4.723471
LeftLeg 13.832334 -0.000000 -0.000000
LeftFoot -23.804931 24.746769 -14.137690
LeftToeBase 9.669678 -0.000000 -0.000000
RightUpLeg -16.244935 11.890543 -4.141451
RightLeg 21.696151 -0.000000 -0.000000
RightFoot -24.082335 -12.423794 14.139441
RightToeBase 2.129852 -0.000000 -0.000000
3692
root -5.573941 31.721210 -4.692575 9.164145 -2.348078 1.672653
Spine -4.667979 -4.803352 -3.360559
Head 9.654105 6.033288 4.320074
LeftShoulder -16.959689 16.969722 12.330860
LeftArm 7.940063 -30.465335 -77.222236
LeftForeArm -0.000250 -0.000000 105.545000
LeftHand -13.521519 -0.000000 28.803894
LeftHandThumb1 -26.253704 0.000000 33.147579
RightShoulder -8.768280 2.770246 -10.428235
RightArm 17.015171 -43.416997 76.954031
RightForeArm -29.507935 -0.000000 22.046768
RightHand -13.426926 0.000000 12.540018
RightHandThumb1 -24.326973 -0.000000 -32.862282
LeftUpLeg -9.443314 -7.006449 -4.842635
LeftLeg 13.344597 -0.000000 -0.000000
LeftFoot -23.581969 24.615776 -14.074564
LeftToeBase 9.711708 -0.000000 -0.000000
RightUpLeg -15.954463 11.567678 -4.194586
RightLeg 21.310442 -0.000000 -0.000000
RightFoot -23.968424 -12.656180 13.923306
RightToeBase 3.081546 -0.000000 -0.000000
3693
root -5.623713 31.723023 -4.642335 9.079285 -2.059956 1.855992
Spine -4.765399 -4.975475 -3.429570
Head 9.657279 6.036386 4.116688
LeftShoulder -17.092923 17.043310 12.120258
LeftArm 8.091739 -30.338192 -77.293688
LeftForeArm 0.330571 -0.000000 105.501466
LeftHand -13.607887 -0.000000 28.951676
LeftHandThumb1 -26.253704 0.000000 33.147579
RightShoulder -8.800382 2.443855 -10.408604
RightArm 16.726427 -43.399018 76.916628
RightForeArm -29.227977 -0.000000 21.752924
RightHand -13.372640 -0.000000 12.820251
RightHandThumb1 -24.326973 -0.000000 -32.862282
LeftUpLeg -9.015653 -7.043723 -4.919214
LeftLeg 12.787972 -0.000000 -0.000000
LeftFoot -23.331790 24.416228 -13.979175
LeftToeBase 9.839529 -0.000000 -0.000000
RightUpLeg -15.571997 10.824204 -4.124028
RightLeg 20.938064 -0.000000 -0.000000
RightFoot -23.775494 -12.662226 13.389333
RightToeBase 3.158686 -0.000000 -0.000000
3694
root -5.669321 31.725249 -4.593829 9.009588 -1.820129 2.053382
Spine -4.877446 -5.047513 -3.511868
Head 9.618227 6.014035 3.901220
LeftShoulder -17.108149 17.016463 11.987210
LeftArm 7.990582 -30.264301 -77.328300
LeftForeArm 0.339164 0.000000 105.534425
LeftHand -13.566674 -0.000000 28.647138
LeftHandThumb1 -26.253704 0.000000 33.147579
RightShoulder -8.836215 2.145346 -10.458540
RightArm 16.162278 -43.120814 77.186732
RightForeArm -29.207117 0.000000 21.533644
RightHand -13.417019 -0.000000 13.002496
RightHandThumb1 -24.326973 -0.000000 -32.862282
LeftUpLeg -8.586865 -7.084812 -5.018701
LeftLeg 12.187298 -0.000000 -0.000000
LeftFoot -23.041666 24.252341 -13.881910
LeftToeBase 9.831265 -0.000000 -0.000000
RightUpLeg -15.221882 10.079279 -4.085189
RightLeg 20.603897 -0.000000 -0.000000
RightFoot -23.631087 -12.504528 12.776056
RightToeBase 3.128761 -0.000000 -0.000000
3695
root -5.709668 31.728595 -4.553032 8.955329 -1.621580 2.257108
Spine -4.961149 -5.053257 -3.603898
Head 9.492888 5.974813 3.663259
LeftShoulder -17.143704 16.937268 11.866246
LeftArm 7.923424 -30.150246 -77.389679
LeftForeArm 0.588400 -0.000000 105.520673
LeftHand -13.548595 -0.000000 28.733305
LeftHandThumb1 -26.253704 0.000000 33.147579
RightShoulder -8.920909 1.774602 -10.478067
RightArm 15.845183 -42.999246 77.205872
RightForeArm -29.236556 -0.000000 21.310150
RightHand -13.431870 -0.000000 13.090634
RightHandThumb1 -24.326973 -0.000000 -32.862282
LeftUpLeg -8.166744 -7.090836 -5.134339
LeftLeg 11.545561 -0.000000 -0.000000
LeftFoot -22.713126 24.083326 -13.750452
LeftToeBase 9.767007 -0.000000 -0.000000
RightUpLeg -14.940677 9.179997 -4.053609
RightLeg 20.362045 -0.000000 -0.000000
RightFoot -23.501133 -12.215930 12.190675
RightToeBase 3.057247 -0.000000 -0.000000
3696
root -5.754944 31.732738 -4.509680 8.900932 -1.413238 2.437297
Spine -5.056980 -5.088267 -3.675365
Head 9.381131 5.991883 3.429862
LeftShoulder -17.184624 16.946448 11.760759
LeftArm 7.891773 -30.082816 -77.525335
LeftForeArm 0.739968 -0.000000 105.533290
LeftHand -13.611504 -0.000000 28.879161
LeftHandThumb1 -26.253704 0.000000 33.147579
RightShoulder -8.983245 1.417703 -10.515588
RightArm 15.440322 -42.706332 77.360716
RightForeArm -28.990990 0.000000 21.047220
RightHand -13.307721 -0.000000 13.256445
RightHandThumb1 -24.326973 -0.000000 -32.862282
LeftUpLeg -7.703421 -7.078131 -5.221186
LeftLeg 10.824532 -0.000000 -0.000000
LeftFoot -22.350779 23.935395 -13.594846
LeftToeBase 9.803864 -0.000000 -0.000000
RightUpLeg -14.649257 8.217005 -3.982730
RightLeg 20.102855 -0.000000 -0.000000
RightFoot -23.345941 -11.892257 11.557974
RightToeBase 2.932016 -0.000000 -0.000000
3697
root -5.803858 31.737257 -4.461648 8.798951 -1.180787 2.595845
Spine -5.100164 -5.056719 -3.759194
Head 9.290519 5.900415 3.280522
LeftShoulder -17.169418 17.020478 11.700610
LeftArm 7.924543 -30.089420 -77.786494
LeftForeArm 0.929349 -0.000000 105.544387
LeftHand -13.528214 -0.000000 28.722342
LeftHandThumb1 -26.253704 0.000000 33.147579
RightShoulder -9.085699 1.099943 -10.529871
RightArm 14.948741 -42.426199 77.546277
RightForeArm -28.821361 0.000000 20.808306
RightHand -13.232642 -0.000000 13.226902
RightHandThumb1 -24.326973 -0.000000 -32.862282
LeftUpLeg -7.169416 -7.065876 -5.271233
LeftLeg 10.078953 -0.000000 -0.000000
LeftFoot -21.991140 23.698413 -13.494806
LeftToeBase 9.807461 -0.000000 -0.000000
RightUpLeg -14.296184 7.261701 -3.884636
RightLeg 19.838273 -0.000000 -0.000000
RightFoot -23.202858 -11.450118 11.131054
RightToeBase 2.823124 -0.000000 -0.000000
3698
root -5.850744 31.743122 -4.417592 8.731678 -1.010743 2.734672
Spine -5.167504 -5.058091 -3.802206
Head 9.169883 5.905317 3.084346
LeftShoulder -17.250148 17.033699 11.634289
LeftArm 7.826538 -30.043504 -77.961246
LeftForeArm 1.172085 -0.000000 105.542940
LeftHand -13.511390 -0.000000 28.637845
LeftHandThumb1 -26.253704 0.000000 33.147579
RightShoulder -9.131161 0.719610 -10.538693
RightArm 14.594843 -42.185208 77.628595
RightForeArm -28.703660 -0.000000 20.607259
RightHand -13.219516 -0.000000 13.401237
RightHandThumb1 -24.326973 -0.000000 -32.862282
LeftUpLeg -6.667253 -6.864090 -5.318762
LeftLeg 9.308466 -0.000000 -0.000000
LeftFoot -21.571279 23.362615 -13.331603
LeftToeBase 9.771036 -0.000000 -0.000000
RightUpLeg -13.990710 6.355460 -3.795976
RightLeg 19.564098 -0.000000 -0.000000
RightFoot -23.059834 -11.035810 10.617780
RightToeBase 2.816798 -0.000000 -0.000000
